<svg id="visual" viewBox="0 0 960 200" width="960" height="200" xmlns="http://www.w3.org/2000/svg" xmlns:xlink="http://www.w3.org/1999/xlink" version="1.1"><path d="M0 34L26.7 40.8C53.3 47.7 106.7 61.3 160 68.2C213.3 75 266.7 75 320 71C373.3 67 426.7 59 480 52.2C533.3 45.3 586.7 39.7 640 42.5C693.3 45.3 746.7 56.7 800 57.3C853.3 58 906.7 48 933.3 43L960 38L960 201L933.3 201C906.7 201 853.3 201 800 201C746.7 201 693.3 201 640 201C586.7 201 533.3 201 480 201C426.7 201 373.3 201 320 201C266.7 201 213.3 201 160 201C106.7 201 53.3 201 26.7 201L0 201Z" fill="#031b34"></path><path d="M0 61L26.7 62C53.3 63 106.7 65 160 68.3C213.3 71.7 266.7 76.3 320 81C373.3 85.7 426.7 90.3 480 88.3C533.3 86.3 586.7 77.7 640 74.8C693.3 72 746.7 75 800 77.2C853.3 79.3 906.7 80.7 933.3 81.3L960 82L960 201L933.3 201C906.7 201 853.3 201 800 201C746.7 201 693.3 201 640 201C586.7 201 533.3 201 480 201C426.7 201 373.3 201 320 201C266.7 201 213.3 201 160 201C106.7 201 53.3 201 26.7 201L0 201Z" fill="#031e3a"></path><path d="M0 89L26.7 87.7C53.3 86.3 106.7 83.7 160 90.5C213.3 97.3 266.7 113.7 320 115.2C373.3 116.7 426.7 103.3 480 99C533.3 94.7 586.7 99.3 640 99.3C693.3 99.3 746.7 94.7 800 95C853.3 95.3 906.7 100.7 933.3 103.3L960 106L960 201L933.3 201C906.7 201 853.3 201 800 201C746.7 201 693.3 201 640 201C586.7 201 533.3 201 480 201C426.7 201 373.3 201 320 201C266.7 201 213.3 201 160 201C106.7 201 53.3 201 26.7 201L0 201Z" fill="#032141"></path><path d="M0 107L26.7 111.2C53.3 115.3 106.7 123.7 160 127C213.3 130.3 266.7 128.7 320 126.8C373.3 125 426.7 123 480 121.8C533.3 120.7 586.7 120.3 640 119.8C693.3 119.3 746.7 118.7 800 116.7C853.3 114.7 906.7 111.3 933.3 109.7L960 108L960 201L933.3 201C906.7 201 853.3 201 800 201C746.7 201 693.3 201 640 201C586.7 201 533.3 201 480 201C426.7 201 373.3 201 320 201C266.7 201 213.3 201 160 201C106.7 201 53.3 201 26.7 201L0 201Z" fill="#032547"></path><path d="M0 157L26.7 153.8C53.3 150.7 106.7 144.3 160 140.2C213.3 136 266.7 134 320 138.5C373.3 143 426.7 154 480 153.8C533.3 153.7 586.7 142.3 640 141.5C693.3 140.7 746.7 150.3 800 154C853.3 157.7 906.7 155.3 933.3 154.2L960 153L960 201L933.3 201C906.7 201 853.3 201 800 201C746.7 201 693.3 201 640 201C586.7 201 533.3 201 480 201C426.7 201 373.3 201 320 201C266.7 201 213.3 201 160 201C106.7 201 53.3 201 26.7 201L0 201Z" fill="#04284e"></path><path d="M0 167L26.7 166.8C53.3 166.7 106.7 166.3 160 168.5C213.3 170.7 266.7 175.3 320 175.8C373.3 176.3 426.7 172.7 480 173C533.3 173.3 586.7 177.7 640 179C693.3 180.3 746.7 178.7 800 177.3C853.3 176 906.7 175 933.3 174.5L960 174L960 201L933.3 201C906.7 201 853.3 201 800 201C746.7 201 693.3 201 640 201C586.7 201 533.3 201 480 201C426.7 201 373.3 201 320 201C266.7 201 213.3 201 160 201C106.7 201 53.3 201 26.7 201L0 201Z" fill="#042c54"></path></svg>