<svg id="visual" viewBox="0 0 960 200" width="960" height="200" xmlns="http://www.w3.org/2000/svg" xmlns:xlink="http://www.w3.org/1999/xlink" version="1.1"><path d="M0 69L26.7 71C53.3 73 106.7 77 160 74.8C213.3 72.7 266.7 64.3 320 65.3C373.3 66.3 426.7 76.7 480 72.8C533.3 69 586.7 51 640 48.8C693.3 46.7 746.7 60.3 800 61.5C853.3 62.7 906.7 51.3 933.3 45.7L960 40L960 201L933.3 201C906.7 201 853.3 201 800 201C746.7 201 693.3 201 640 201C586.7 201 533.3 201 480 201C426.7 201 373.3 201 320 201C266.7 201 213.3 201 160 201C106.7 201 53.3 201 26.7 201L0 201Z" fill="#042c54"></path><path d="M0 88L26.7 86.3C53.3 84.7 106.7 81.3 160 84.8C213.3 88.3 266.7 98.7 320 98.8C373.3 99 426.7 89 480 86C533.3 83 586.7 87 640 90C693.3 93 746.7 95 800 96.5C853.3 98 906.7 99 933.3 99.5L960 100L960 201L933.3 201C906.7 201 853.3 201 800 201C746.7 201 693.3 201 640 201C586.7 201 533.3 201 480 201C426.7 201 373.3 201 320 201C266.7 201 213.3 201 160 201C106.7 201 53.3 201 26.7 201L0 201Z" fill="#03274c"></path><path d="M0 94L26.7 93.8C53.3 93.7 106.7 93.3 160 93.3C213.3 93.3 266.7 93.7 320 94.8C373.3 96 426.7 98 480 98.8C533.3 99.7 586.7 99.3 640 98.3C693.3 97.3 746.7 95.7 800 101C853.3 106.3 906.7 118.7 933.3 124.8L960 131L960 201L933.3 201C906.7 201 853.3 201 800 201C746.7 201 693.3 201 640 201C586.7 201 533.3 201 480 201C426.7 201 373.3 201 320 201C266.7 201 213.3 201 160 201C106.7 201 53.3 201 26.7 201L0 201Z" fill="#032344"></path><path d="M0 147L26.7 143.5C53.3 140 106.7 133 160 131C213.3 129 266.7 132 320 135.3C373.3 138.7 426.7 142.3 480 144.5C533.3 146.7 586.7 147.3 640 146.3C693.3 145.3 746.7 142.7 800 139.7C853.3 136.7 906.7 133.3 933.3 131.7L960 130L960 201L933.3 201C906.7 201 853.3 201 800 201C746.7 201 693.3 201 640 201C586.7 201 533.3 201 480 201C426.7 201 373.3 201 320 201C266.7 201 213.3 201 160 201C106.7 201 53.3 201 26.7 201L0 201Z" fill="#031f3c"></path><path d="M0 151L26.7 155C53.3 159 106.7 167 160 171C213.3 175 266.7 175 320 172C373.3 169 426.7 163 480 158.8C533.3 154.7 586.7 152.3 640 153.5C693.3 154.7 746.7 159.3 800 162.2C853.3 165 906.7 166 933.3 166.5L960 167L960 201L933.3 201C906.7 201 853.3 201 800 201C746.7 201 693.3 201 640 201C586.7 201 533.3 201 480 201C426.7 201 373.3 201 320 201C266.7 201 213.3 201 160 201C106.7 201 53.3 201 26.7 201L0 201Z" fill="#031b34"></path></svg>