<svg id="visual" viewBox="0 0 960 200" width="960" height="200" xmlns="http://www.w3.org/2000/svg" xmlns:xlink="http://www.w3.org/1999/xlink" version="1.1"><path d="M0 142L22.8 129.7C45.7 117.3 91.3 92.7 137 95.2C182.7 97.7 228.3 127.3 274 126.5C319.7 125.7 365.3 94.3 411.2 78.5C457 62.7 503 62.3 548.8 71.3C594.7 80.3 640.3 98.7 686 115.2C731.7 131.7 777.3 146.3 823 152.3C868.7 158.3 914.3 155.7 937.2 154.3L960 153L960 0L937.2 0C914.3 0 868.7 0 823 0C777.3 0 731.7 0 686 0C640.3 0 594.7 0 548.8 0C503 0 457 0 411.2 0C365.3 0 319.7 0 274 0C228.3 0 182.7 0 137 0C91.3 0 45.7 0 22.8 0L0 0Z" fill="#042C54" stroke-linecap="round" stroke-linejoin="miter"></path></svg>