<svg id="visual" viewBox="0 0 960 100" width="960" height="100" xmlns="http://www.w3.org/2000/svg" xmlns:xlink="http://www.w3.org/1999/xlink" version="1.1"><path d="M0 30L22.8 27.8C45.7 25.7 91.3 21.3 137 21.7C182.7 22 228.3 27 274 29.7C319.7 32.3 365.3 32.7 411.2 31.5C457 30.3 503 27.7 548.8 28.5C594.7 29.3 640.3 33.7 686 34.3C731.7 35 777.3 32 823 33.2C868.7 34.3 914.3 39.7 937.2 42.3L960 45L960 101L937.2 101C914.3 101 868.7 101 823 101C777.3 101 731.7 101 686 101C640.3 101 594.7 101 548.8 101C503 101 457 101 411.2 101C365.3 101 319.7 101 274 101C228.3 101 182.7 101 137 101C91.3 101 45.7 101 22.8 101L0 101Z" fill="#00488f"></path><path d="M0 39L22.8 41C45.7 43 91.3 47 137 47.2C182.7 47.3 228.3 43.7 274 42.8C319.7 42 365.3 44 411.2 42.5C457 41 503 36 548.8 35.3C594.7 34.7 640.3 38.3 686 41.7C731.7 45 777.3 48 823 48.8C868.7 49.7 914.3 48.3 937.2 47.7L960 47L960 101L937.2 101C914.3 101 868.7 101 823 101C777.3 101 731.7 101 686 101C640.3 101 594.7 101 548.8 101C503 101 457 101 411.2 101C365.3 101 319.7 101 274 101C228.3 101 182.7 101 137 101C91.3 101 45.7 101 22.8 101L0 101Z" fill="#004180"></path><path d="M0 46L22.8 48.7C45.7 51.3 91.3 56.7 137 60.3C182.7 64 228.3 66 274 65.2C319.7 64.3 365.3 60.7 411.2 57C457 53.3 503 49.7 548.8 50.7C594.7 51.7 640.3 57.3 686 58.5C731.7 59.7 777.3 56.3 823 55.5C868.7 54.7 914.3 56.3 937.2 57.2L960 58L960 101L937.2 101C914.3 101 868.7 101 823 101C777.3 101 731.7 101 686 101C640.3 101 594.7 101 548.8 101C503 101 457 101 411.2 101C365.3 101 319.7 101 274 101C228.3 101 182.7 101 137 101C91.3 101 45.7 101 22.8 101L0 101Z" fill="#003a71"></path><path d="M0 76L22.8 74.7C45.7 73.3 91.3 70.7 137 68.5C182.7 66.3 228.3 64.7 274 63.8C319.7 63 365.3 63 411.2 65.2C457 67.3 503 71.7 548.8 72C594.7 72.3 640.3 68.7 686 69C731.7 69.3 777.3 73.7 823 73C868.7 72.3 914.3 66.7 937.2 63.8L960 61L960 101L937.2 101C914.3 101 868.7 101 823 101C777.3 101 731.7 101 686 101C640.3 101 594.7 101 548.8 101C503 101 457 101 411.2 101C365.3 101 319.7 101 274 101C228.3 101 182.7 101 137 101C91.3 101 45.7 101 22.8 101L0 101Z" fill="#023362"></path><path d="M0 82L22.8 83.2C45.7 84.3 91.3 86.7 137 86.3C182.7 86 228.3 83 274 82.8C319.7 82.7 365.3 85.3 411.2 85.2C457 85 503 82 548.8 80C594.7 78 640.3 77 686 78.2C731.7 79.3 777.3 82.7 823 82.7C868.7 82.7 914.3 79.3 937.2 77.7L960 76L960 101L937.2 101C914.3 101 868.7 101 823 101C777.3 101 731.7 101 686 101C640.3 101 594.7 101 548.8 101C503 101 457 101 411.2 101C365.3 101 319.7 101 274 101C228.3 101 182.7 101 137 101C91.3 101 45.7 101 22.8 101L0 101Z" fill="#042c54"></path></svg>