<svg id="visual" viewBox="0 0 960 200" width="960" height="200" xmlns="http://www.w3.org/2000/svg" xmlns:xlink="http://www.w3.org/1999/xlink" version="1.1"><path d="M0 78L26.7 77.2C53.3 76.3 106.7 74.7 160 71.7C213.3 68.7 266.7 64.3 320 67.8C373.3 71.3 426.7 82.7 480 84C533.3 85.3 586.7 76.7 640 66.8C693.3 57 746.7 46 800 41.8C853.3 37.7 906.7 40.3 933.3 41.7L960 43L960 201L933.3 201C906.7 201 853.3 201 800 201C746.7 201 693.3 201 640 201C586.7 201 533.3 201 480 201C426.7 201 373.3 201 320 201C266.7 201 213.3 201 160 201C106.7 201 53.3 201 26.7 201L0 201Z" fill="#040c18"></path><path d="M0 74L26.7 81.3C53.3 88.7 106.7 103.3 160 101.8C213.3 100.3 266.7 82.7 320 78.3C373.3 74 426.7 83 480 84C533.3 85 586.7 78 640 76.7C693.3 75.3 746.7 79.7 800 83.8C853.3 88 906.7 92 933.3 94L960 96L960 201L933.3 201C906.7 201 853.3 201 800 201C746.7 201 693.3 201 640 201C586.7 201 533.3 201 480 201C426.7 201 373.3 201 320 201C266.7 201 213.3 201 160 201C106.7 201 53.3 201 26.7 201L0 201Z" fill="#091626"></path><path d="M0 92L26.7 96.3C53.3 100.7 106.7 109.3 160 116.3C213.3 123.3 266.7 128.7 320 129.5C373.3 130.3 426.7 126.7 480 123.8C533.3 121 586.7 119 640 121.8C693.3 124.7 746.7 132.3 800 136.3C853.3 140.3 906.7 140.7 933.3 140.8L960 141L960 201L933.3 201C906.7 201 853.3 201 800 201C746.7 201 693.3 201 640 201C586.7 201 533.3 201 480 201C426.7 201 373.3 201 320 201C266.7 201 213.3 201 160 201C106.7 201 53.3 201 26.7 201L0 201Z" fill="#091d35"></path><path d="M0 148L26.7 143.3C53.3 138.7 106.7 129.3 160 129C213.3 128.7 266.7 137.3 320 138.5C373.3 139.7 426.7 133.3 480 131.5C533.3 129.7 586.7 132.3 640 138C693.3 143.7 746.7 152.3 800 156.5C853.3 160.7 906.7 160.3 933.3 160.2L960 160L960 201L933.3 201C906.7 201 853.3 201 800 201C746.7 201 693.3 201 640 201C586.7 201 533.3 201 480 201C426.7 201 373.3 201 320 201C266.7 201 213.3 201 160 201C106.7 201 53.3 201 26.7 201L0 201Z" fill="#072444"></path><path d="M0 153L26.7 152.7C53.3 152.3 106.7 151.7 160 153.5C213.3 155.3 266.7 159.7 320 163.2C373.3 166.7 426.7 169.3 480 169.7C533.3 170 586.7 168 640 165C693.3 162 746.7 158 800 156.7C853.3 155.3 906.7 156.7 933.3 157.3L960 158L960 201L933.3 201C906.7 201 853.3 201 800 201C746.7 201 693.3 201 640 201C586.7 201 533.3 201 480 201C426.7 201 373.3 201 320 201C266.7 201 213.3 201 160 201C106.7 201 53.3 201 26.7 201L0 201Z" fill="#042c54"></path></svg>